<?xml version="1.0" encoding="utf-8"?>
<!-- Generator: Adobe Illustrator 21.0.0, SVG Export Plug-In . SVG Version: 6.00 Build 0)  -->
<svg version="1.1" xmlns="http://www.w3.org/2000/svg" xmlns:xlink="http://www.w3.org/1999/xlink" x="0px" y="0px"
	 viewBox="0 0 1000 1000" style="enable-background:new 0 0 1000 1000;" xml:space="preserve">
<style type="text/css">
	.st0{fill:#6C8C65;}
	.st1{clip-path:url(#SVGID_2_);}
	.st2{fill:#96441B;}
	.st3{fill:#403631;}
	.st4{fill:#776050;}
	.st5{fill:#D3B79C;}
	.st6{display:none;}
</style>
<g id="Plate">
	<circle class="st0" cx="500" cy="500" r="373.48"/>
</g>
<g id="Lark">
	<g>
		<defs>
			<circle id="SVGID_1_" cx="500" cy="500" r="373.48"/>
		</defs>
		<clipPath id="SVGID_2_">
			<use xlink:href="#SVGID_1_"  style="overflow:visible;"/>
		</clipPath>
		<g class="st1">
			<path id="Leg" class="st2" d="M512.76,629.39c-5.17,1.52-80.75,23.76-102.36,27.6c-16.58,2.95-33.45,3.16-50.13,0.6
				c-7.71,0.88-18.95,3.82-28.93,12.74c-3.93,3.52-7.28,7.63-9.96,12.24c17.41-8.32,36.54-12.76,55.49-12.87c0.24,0,0.48,0,0.72,0
				c32.61,0,58,12.52,72.89,22.34c-2.64-2.79-5.48-5.38-8.5-7.74c-4.86-3.81-10.18-7.03-15.8-9.58l-1.74-0.79l1.7-0.87
				c16.4-8.41,33.35-16.26,50.37-23.33c15.07-6.26,30.55-12.05,46.05-17.22L512.76,629.39z"/>
			<path id="Tail" class="st3" d="M707.51,752.91c30.7,33.96,81.8,105.93,81.8,105.93c1.18,1.66,1.43,1.51,0.56-0.33
				c0,0-35.61-75.49-64.34-118.14c-18.79-27.9-59.07-77.74-59.07-77.74c-1.28-1.58-2.42-2.9-2.54-2.93c0,0,0,0-0.11-0.02
				c-3.6-0.83-7.19-1.71-10.77-2.61c-0.26-0.07-0.53-0.13-0.79-0.2c-3.52-0.9-7.03-1.83-10.53-2.8c-0.36-0.1-0.71-0.19-1.07-0.29
				c-3.23-0.9-6.44-1.83-9.64-2.79c-0.61-0.18-1.24-0.36-1.85-0.54c-3.12-0.94-6.23-1.92-9.33-2.92c-0.57-0.18-0.57-0.18-0.57-0.18
				c-0.63-0.19-1.33-0.32-1.57-0.27c0,0,0,0-0.21,0.05c-2.95,0.64-5.91,1.23-8.87,1.78c-0.49,0.09-0.98,0.17-1.48,0.26
				c-3.08,0.56-6.16,1.06-9.24,1.52c-0.04,0.01-0.04,0.01-0.04,0.01c-0.04,0.01,1.19,1.09,2.74,2.42
				C600.62,653.12,674.03,715.88,707.51,752.91z"/>
			<path id="Body_Bottom" class="st3" d="M610.36,644.13c-4.12-1.65-8.7-2.77-12.73-4.27c-5.68-2.12-11.32-4.32-16.92-6.61
				c-33.15-13.56-64.9-30.35-94.76-50.14c-9.94-6.59-19.66-13.5-29.16-20.71c-14.88-11.3-29.19-23.36-42.85-36.11
				c-6.06-5.66-11.99-11.47-17.77-17.42c-17.87-18.4-34.55-37.89-49.72-58.58c-11.19-15.26-21.58-31.09-31.08-47.45
				c-3.32-5.71-6.54-11.48-9.66-17.3c-1.76-3.3-3.62-10.29-7.58-11.36c-1.57-0.42-3.23-0.25-4.84-0.11
				c-8.66,0.78-17.38,0.79-26.04,0.03c-4.84-0.42-4.87,1.52-4.56,5.56c0.35,4.67,0.8,9.34,1.35,14c1.08,9.12,2.57,18.2,4.51,27.18
				c4.56,21.16,11.47,41.81,20.57,61.45c9.07,19.6,20.31,38.19,33.46,55.33c20.55,26.78,46.08,50.18,74.5,68.38
				c19.34,12.39,40.14,22.52,61.84,30.06c3.28,1.14,7.81,3.56,11.27,3.64c4.22,0.1,10.02-2.83,14.1-4
				c5.51-1.57,11.01-3.15,16.52-4.72c4.19-1.2,9.47-3.81,13.72-2.93c4.24,0.87,9.79,2.22,13.49,4.44
				c-4.98,3.02-12.16,4.28-17.7,6.26c-2.92,1.05-5.86,2.05-8.78,3.1c-2.42,0.87-6.62,1.73-8.34,3.51
				c8.01,3.14,18.18,3.73,26.68,4.77c27.2,3.31,54.77,2.33,81.81-1.89c2.95-0.47,5.89-0.95,8.84-1.42c1.1-0.18,2.23-0.34,3.12-1.02
				C612.7,645.02,611.5,644.58,610.36,644.13z"/>
			<path id="Body_Top" class="st4" d="M386.67,355.81c-8.68,3.08-17.5,5.77-26.4,8.1c-9.28,2.43-18.67,4.46-28.13,6.07
				c-9.75,1.66-26.18,3.45-26.18,3.45c-2.02,0.22-2.95,1.9-2.05,3.73c0,0,6.15,12.59,10.37,20.01
				c26.31,46.32,59.62,88.63,98.3,125.24c38.98,36.9,83.35,68.12,131.35,92.15c50.34,25.2,104.67,42.48,160.31,51.05
				c0.29,0.04,0.29,0.04,0.29,0.04c0.32,0.05,0.65,0.11,0.74,0.14c0.09,0.03,1.6,0.88,3.37,1.9l59.65,34.23
				c1.77,1.01,1.99,0.71,0.5-0.67l-57.83-53.62c-1.49-1.38-1.23-1.75,0.58-0.82l68.95,35.57c-18.33-12.05-36.18-25.01-53.23-38.66
				c-20.7-16.57-40.67-34.52-59.37-53.34l0,0c0.3-0.29,0.23-0.37-0.14-0.17l0,0c-33.61-58.63-77.52-110.04-130.52-152.81
				c-38.27-30.88-121.84-74.19-121.84-74.19c-1.81-0.94-4.55-2.78-6.11-4.1c0,0-4.85-4.12-8.32-6.72c-2.34-1.75-2.1-1.18-5.21,0.03
				C392.74,353.6,389.71,354.73,386.67,355.81z"/>
			<path id="Head" class="st5" d="M261.05,328.89c0.66,1.27,1.28,2.39,1.93,3.46l0.16,0.26l-0.03,0.3
				c-0.38,6.01-0.87,11.99-1.03,18.01c-0.15,5.64-1.45,13.59,0.11,19.03c0.9,3.16,1.52,2.49,5.14,2.6c3.09,0.1,6.18,0.16,9.27,0.17
				c5.95,0.02,11.89-0.12,17.83-0.43c23.75-1.23,47.36-5.1,70.27-11.51c6.2-1.74,12.35-3.66,18.44-5.76
				c3.04-1.05,6.07-2.15,9.08-3.3c3.72-1.41,6.35-1.27,3.33-4.85c-7.95-9.42-15.62-18.95-20.3-30.48
				c-4.76-11.72-24.16-52.24-60.48-56.05c-7.32-0.77-14.78-0.28-21.92,1.49c-13.08,3.25-25.14,11.09-31.86,22.98
				c-0.58,1.03-1.12,2.07-1.63,3.17c-0.5,1.06-0.94,2.14-1.34,3.21c-3.93,10.69-3.54,22.31,1.12,33.6c0.45,1.1,0.99,2.26,1.69,3.64
				L261.05,328.89z"/>
			<path id="Beak" class="st2" d="M256.68,323.59c-0.46-1.25-0.87-2.5-1.23-3.75c-0.05-0.17-0.1-0.34-0.15-0.51
				c-0.34-1.23-0.63-2.46-0.88-3.69c-0.04-0.19-0.08-0.38-0.11-0.57c-0.23-1.22-0.41-2.44-0.54-3.66c-0.02-0.2-0.04-0.39-0.06-0.59
				c-0.12-1.22-0.19-2.43-0.21-3.64c0-0.19,0-0.38-0.01-0.57c-0.01-1.22,0.03-2.44,0.12-3.65c0.01-0.17,0.03-0.34,0.04-0.51
				c0.1-1.23,0.25-2.46,0.45-3.67c0.02-0.14,0.05-0.27,0.08-0.41c0.22-1.25,0.49-2.5,0.82-3.73c0.02-0.08,0.05-0.16,0.07-0.25
				c0.35-1.29,0.75-2.57,1.21-3.83c0.37-1,0.79-1.99,1.24-2.98c0.1-0.22,0.2-0.44,0.3-0.65c0.09-0.2,0.09-0.2,0.09-0.2
				c0.1-0.22-1.34,0.3-3.19,1.14l-43.78,19.91c-1.85,0.84-1.77,2,0.18,2.57l42.04,12.34c1.95,0.57,3.54,1,3.52,0.95
				C256.7,323.64,256.7,323.64,256.68,323.59z"/>
			
				<ellipse id="Eye_4_" transform="matrix(0.1585 -0.9874 0.9874 0.1585 -28.6228 565.1933)" class="st3" cx="317.27" cy="299.39" rx="12.28" ry="14.35"/>
		</g>
	</g>
</g>
<g id="Guides" class="st6">
</g>
</svg>
